# xmcd
#
# Track frame offsets: 
#        150
#        36062
#        85807
#        104665
#        139280
#        157615
#        183585
#        210945
#        235422
#        256530
#
# Disc length: 3710 seconds
#
# Revision: 3
# Processed by: cddbd v1.5.2PL0 Copyright (c) Steve Scherf et al.
# Submitted via: ExactAudioCopyFreeDBPlugin 1.0
#
DISCID=790e7c0a
DTITLE=Various Artist - Angel Eyes
DYEAR=1987
DGENRE=Jazz
TTITLE0=Manhattan Jazz Quintet - On a Clear Day
TTITLE1=Manhattan Jazz Quintet - Angel Eyes
TTITLE2=Manhattan Jazz Quintet - Rosario
TTITLE3=Benny Carter - Sometimes i'm Happy
TTITLE4=Rosemary Clooney - Days of Wine and Roses
TTITLE5=The Ray Brown Trio featuring Gene Harris - Cry me a River
TTITLE6=David Matthews and The First Calls - Speed Demon
TTITLE7=George Young - Ode to a Friend
TTITLE8=Richard Tee - What can I say
TTITLE9=Steve Gadd - My little Brother
EXTD=YEAR: 1987
EXTT0=
EXTT1=
EXTT2=
EXTT3=
EXTT4=
EXTT5=
EXTT6=
EXTT7=
EXTT8=
EXTT9=
PLAYORDER=
